<svg xmlns="http://www.w3.org/2000/svg" width="134.543" height="101.745" viewBox="0 0 134.543 101.745"><path d="M126.774,31.691H114.137l-3.62-20.511A8.815,8.815,0,0,0,100.36,4.056L8.245,20.3A8.777,8.777,0,0,0,1.137,30.465l9.823,55.7a8.743,8.743,0,0,0,10.157,7.124l3.357-.593v4.212a8.775,8.775,0,0,0,8.766,8.766h93.533a8.78,8.78,0,0,0,8.772-8.766V40.458A8.779,8.779,0,0,0,126.774,31.691Zm.361,8.766V48.7H32.918l.323-8.6ZM19.24,84.706,11,38.01l-1.3-9.429,92.531-15.945L105.6,31.691H33.241a8.775,8.775,0,0,0-8.766,8.766V84.007ZM126.774,97.261l-93.889-.355V63.592h94.251V96.906A.36.36,0,0,1,126.774,97.261Z" transform="translate(-1.002 -3.927)"/></svg>