<svg xmlns="http://www.w3.org/2000/svg" width="178.395" height="90.405" viewBox="0 0 178.395 90.405"><g transform="translate(-26.308 -139.6)"><g transform="translate(26.308 139.6)"><path d="M188.934,139.6H41.476a15.287,15.287,0,0,1-15.168,15.471v59.462a15.287,15.287,0,0,1,15.168,15.471H188.934A15.417,15.417,0,0,1,204.7,214.534V155.071A15.417,15.417,0,0,1,188.934,139.6Zm.033,66.792a11.193,11.193,0,0,0-11.45,11.231H53.057a11.1,11.1,0,0,0-11.012-11.231v-43.18a11.1,11.1,0,0,0,11.012-11.231h124.46a11.193,11.193,0,0,0,11.45,11.231v43.18Z" transform="translate(-26.308 -139.6)"/><path d="M374.311,240.958l-3.737-.543a.873.873,0,0,1-.657-.477l-1.672-3.387a.873.873,0,0,0-1.565,0l-1.672,3.387a.873.873,0,0,1-.657.477l-3.737.543a.873.873,0,0,0-.484,1.489l2.7,2.635a.875.875,0,0,1,.251.773l-.638,3.723a.873.873,0,0,0,1.267.92l3.344-1.758a.872.872,0,0,1,.813,0l3.343,1.757a.873.873,0,0,0,1.267-.921l-.64-3.723a.872.872,0,0,1,.251-.773l2.7-2.635A.873.873,0,0,0,374.311,240.958Z" transform="translate(-230.333 -198.603)"/><path d="M308.65,240.959l-3.739-.543a.871.871,0,0,1-.657-.478l-1.669-3.386a.873.873,0,0,0-1.566,0l-1.671,3.386a.872.872,0,0,1-.657.477l-3.739.543a.873.873,0,0,0-.483,1.489l2.705,2.635a.875.875,0,0,1,.251.773l-.638,3.723a.873.873,0,0,0,1.267.92l3.344-1.758a.871.871,0,0,1,.812,0l3.342,1.757a.873.873,0,0,0,1.267-.921l-.639-3.723a.873.873,0,0,1,.251-.773l2.7-2.635A.873.873,0,0,0,308.65,240.959Z" transform="translate(-190.169 -198.605)"/><path d="M242.994,240.958l-3.736-.543a.871.871,0,0,1-.657-.477l-1.673-3.387a.873.873,0,0,0-1.566,0l-1.672,3.387a.872.872,0,0,1-.657.477l-3.737.543a.873.873,0,0,0-.484,1.489l2.7,2.635a.873.873,0,0,1,.251.773l-.639,3.723a.873.873,0,0,0,1.266.92l3.344-1.757a.871.871,0,0,1,.812,0l3.344,1.757a.873.873,0,0,0,1.266-.921l-.64-3.723a.874.874,0,0,1,.251-.773l2.7-2.635A.872.872,0,0,0,242.994,240.958Z" transform="translate(-150.011 -198.603)"/><rect width="6.99" height="7.856" transform="translate(54.922 64.369)"/><rect width="6.99" height="7.856" transform="translate(54.922 48.657)"/><rect width="6.99" height="7.856" transform="translate(54.922 32.945)"/><rect width="6.99" height="7.856" transform="translate(54.922 17.233)"/><rect width="16.135" height="6.99" transform="translate(27.293 41.234)"/><rect width="16.135" height="6.99" transform="translate(27.293 54.38)"/><rect width="16.135" height="6.99" transform="translate(27.293 28.089)"/></g></g></svg>